<?xml version="1.0" encoding="UTF-8" standalone="no"?>
<!DOCTYPE svg PUBLIC "-//W3C//DTD SVG 1.1//EN" "http://www.w3.org/Graphics/SVG/1.1/DTD/svg11.dtd">
<svg width="100%" height="100%" viewBox="0 0 1080 1080" version="1.1" xmlns="http://www.w3.org/2000/svg" xmlns:xlink="http://www.w3.org/1999/xlink" xml:space="preserve" xmlns:serif="http://www.serif.com/" style="fill-rule:evenodd;clip-rule:evenodd;stroke-linejoin:round;stroke-miterlimit:2;">
    <g transform="matrix(1.03909,0,0,1.66255,1.00974e-28,2.27374e-13)">
        <path d="M1039.37,162.402C1039.37,72.77 922.939,0 779.528,0L259.843,0C116.432,0 0,72.77 0,162.402L0,487.205C0,576.837 116.432,649.606 259.843,649.606L779.528,649.606C922.939,649.606 1039.37,576.837 1039.37,487.205L1039.37,162.402Z" style="fill:rgb(0,33,46);"/>
    </g>
    <g transform="matrix(2.05436,0,0,2.05436,-569.356,-569.356)">
        <g transform="matrix(4.16667,0,0,4.16667,465.642,532.92)">
            <path d="M0,3.935L24.865,3.935L24.865,19.243L23.685,19.181L23.191,17.079L23.023,17.079C21.404,22.159 18.503,26.122 14.316,28.968C10.131,31.814 5.078,33.238 -0.837,33.238C-5.414,33.238 -9.461,32.414 -12.977,30.768C-16.493,29.122 -19.424,26.89 -21.768,24.07C-24.112,21.253 -25.885,17.945 -27.084,14.149C-28.285,10.354 -28.884,6.308 -28.884,2.01C-28.884,-2.344 -28.243,-6.432 -26.959,-10.256C-25.675,-14.078 -23.833,-17.399 -21.433,-20.219C-19.033,-23.037 -16.104,-25.255 -12.642,-26.875C-9.182,-28.493 -5.247,-29.303 -0.837,-29.303C2.512,-29.303 5.595,-28.828 8.414,-27.879C11.232,-26.93 13.716,-25.577 15.865,-23.819C18.014,-22.061 20.233,-19.943 21.602,-17.487C22.969,-15.031 23.442,-12.278 23.944,-9.209L22.936,-9.321C22.434,-12.111 20.859,-14.525 19.549,-16.786C18.237,-19.046 16.59,-20.985 14.609,-22.605C12.628,-24.223 10.34,-25.464 7.744,-26.331C5.149,-27.195 2.288,-27.628 -0.837,-27.628C-5.023,-27.628 -8.749,-26.846 -12.014,-25.284C-15.279,-23.721 -18.042,-21.6 -20.303,-18.921C-22.563,-16.242 -24.279,-13.103 -25.451,-9.503C-26.624,-5.902 -27.21,-2.064 -27.21,2.01C-27.21,6.084 -26.652,9.921 -25.535,13.521C-24.419,17.121 -22.745,20.261 -20.512,22.94C-18.28,25.619 -15.503,27.741 -12.182,29.303C-8.861,30.866 -4.996,31.647 -0.586,31.647C2.707,31.647 5.805,31.075 8.707,29.931C11.608,28.788 14.135,27.197 16.284,25.159C18.432,23.122 20.121,20.694 21.349,17.875C22.576,15.058 23.191,12.001 23.191,8.708L23.191,5.609L0,5.609L0,3.935Z" style="fill:white;fill-rule:nonzero;"/>
        </g>
        <g transform="matrix(4.16667,0,0,4.16667,715.699,625.747)">
            <path d="M0,-41.695C-1.033,-43.788 -2.4,-45.49 -4.103,-46.802C-5.806,-48.112 -7.828,-49.048 -10.172,-49.607C-12.517,-50.164 -15.028,-50.444 -17.707,-50.444C-19.772,-50.444 -21.922,-50.235 -24.154,-49.816C-26.387,-49.397 -28.41,-48.657 -30.224,-47.597C-32.038,-46.536 -33.531,-45.128 -34.703,-43.369C-35.875,-41.611 -36.461,-39.392 -36.461,-36.713C-36.461,-34.034 -35.862,-31.885 -34.661,-30.267C-33.462,-28.647 -31.898,-27.337 -29.973,-26.332C-28.047,-25.327 -25.857,-24.545 -23.4,-23.987C-20.945,-23.429 -18.434,-22.843 -15.865,-22.229C-13.075,-21.503 -10.438,-20.806 -7.953,-20.136C-5.471,-19.466 -3.307,-18.573 -1.465,-17.457C0.377,-16.34 1.842,-14.862 2.931,-13.02C4.019,-11.178 4.562,-8.694 4.562,-5.569C4.562,-2.722 3.948,-0.294 2.721,1.716C1.492,3.724 -0.126,5.386 -2.135,6.697C-4.145,8.009 -6.404,8.957 -8.916,9.544C-11.428,10.13 -13.969,10.423 -16.535,10.423C-19.94,10.423 -23.054,9.926 -25.954,9.25C-27.454,8.9 -29.954,7.775 -31.329,6.15C-32.977,4.203 -33.943,3.02 -35.086,0.341C-36.23,-2.338 -37.136,-4.636 -37.079,-8.433L-35.496,-9.6C-35.496,-6.027 -34.515,-2.77 -33.454,-0.287C-32.395,2.197 -31.738,3.182 -30.073,5.02C-28.767,6.463 -26.892,7.4 -25.284,7.785C-22.618,8.423 -19.717,8.832 -16.535,8.832C-14.191,8.832 -11.861,8.567 -9.544,8.036C-7.229,7.507 -5.148,6.655 -3.307,5.483C-1.465,4.31 0.027,2.804 1.172,0.962C2.315,-0.88 2.889,-3.084 2.889,-5.653C2.889,-8.666 2.231,-11.053 0.921,-12.811C-0.392,-14.569 -2.065,-15.963 -4.103,-16.996C-6.141,-18.029 -8.401,-18.81 -10.884,-19.341C-13.368,-19.871 -15.754,-20.415 -18.042,-20.973C-20.442,-21.531 -22.843,-22.117 -25.242,-22.732C-27.643,-23.345 -29.805,-24.197 -31.73,-25.285C-33.656,-26.374 -35.205,-27.824 -36.377,-29.639C-37.55,-31.452 -38.136,-33.81 -38.136,-36.713C-38.136,-39.671 -37.522,-42.141 -36.294,-44.123C-35.066,-46.103 -33.476,-47.681 -31.521,-48.853C-29.568,-50.025 -27.377,-50.862 -24.949,-51.365C-22.521,-51.867 -20.107,-52.118 -17.707,-52.118C-14.749,-52.118 -12.028,-51.797 -9.544,-51.155C-7.062,-50.513 -4.885,-49.481 -3.014,-48.058C-1.145,-46.634 0.348,-44.764 1.465,-42.448C2.581,-40.132 3.224,-37.299 3.391,-33.95L1.717,-33.95C1.604,-37.019 1.032,-39.602 0,-41.695" style="fill:white;fill-rule:nonzero;"/>
        </g>
    </g>
</svg>
